<svg width="48" height="71" viewBox="0 0 48 71" fill="none" xmlns="http://www.w3.org/2000/svg">
<path d="M23.79 35.25C23.79 28.7609 29.0505 23.5 35.54 23.5C42.0292 23.5 47.29 28.7605 47.29 35.25C47.29 41.7395 42.0292 47 35.54 47C29.0505 47 23.79 41.7391 23.79 35.25Z" fill="#A0A0A0"/>
<path d="M0.290039 58.75C0.290039 52.2605 5.55051 47 12.04 47H23.79V58.75C23.79 65.2395 18.5296 70.5 12.04 70.5C5.55051 70.5 0.290039 65.2395 0.290039 58.75Z" fill="#A0A0A0"/>
<path d="M23.79 0V23.5H35.54C42.0296 23.5 47.29 18.2395 47.29 11.75C47.29 5.26047 42.0296 0 35.54 0H23.79Z" fill="#A0A0A0"/>
<path d="M0.290039 11.75C0.290039 18.2395 5.55051 23.5 12.04 23.5H23.79V0H12.04C5.55051 0 0.290039 5.26047 0.290039 11.75Z" fill="#A0A0A0"/>
<path d="M0.290039 35.25C0.290039 41.7395 5.55051 47 12.04 47H23.79V23.5H12.04C5.55051 23.5 0.290039 28.7605 0.290039 35.25Z" fill="#A0A0A0"/>
</svg>
