<svg width="115" height="70" viewBox="0 0 115 70" fill="none" xmlns="http://www.w3.org/2000/svg">
<path d="M56.4842 70C56.1092 70 55.7342 69.8929 55.3949 69.7143L51.9662 67.6785C51.4483 67.3928 51.6983 67.2856 51.8769 67.232C52.5555 66.9999 52.6984 66.9463 53.4306 66.5177C53.502 66.482 53.6091 66.4999 53.6806 66.5356L56.3235 68.1071C56.4128 68.1606 56.5557 68.1606 56.645 68.1071L66.9668 62.1426C67.0561 62.089 67.1275 61.9818 67.1275 61.8568V49.9457C67.1275 49.8207 67.0739 49.7135 66.9668 49.66L56.645 43.7133C56.5557 43.6597 56.4307 43.6597 56.3235 43.7133L46.0017 49.66C45.8946 49.7135 45.841 49.8385 45.841 49.9457V61.8568C45.841 61.964 45.9124 62.0711 46.0017 62.1247L48.8232 63.7498C50.359 64.5177 51.3055 63.6069 51.3055 62.714V50.9457C51.3055 50.785 51.4305 50.6421 51.6091 50.6421H52.9127C53.0734 50.6421 53.2163 50.7671 53.2163 50.9457V62.714C53.2163 64.7677 52.1091 65.9284 50.1626 65.9284C49.5733 65.9284 49.0911 65.9284 47.7875 65.2855L45.0731 63.7319C44.4124 63.339 43.9838 62.6247 43.9838 61.8568V49.9457C43.9838 49.1778 44.3945 48.4456 45.0731 48.0706L55.3949 42.1061C56.0557 41.7311 56.9128 41.7311 57.5557 42.1061L67.8775 48.0706C68.5383 48.4635 68.9668 49.1778 68.9668 49.9457V61.8568C68.9668 62.6247 68.5561 63.3569 67.8775 63.7319L57.5557 69.6964C57.2521 69.8929 56.8771 70 56.4842 70ZM64.8238 58.2496C64.8238 56.0173 63.3238 55.428 60.1451 54.9994C56.9307 54.5709 56.6092 54.3566 56.6092 53.6065C56.6092 52.9815 56.8771 52.1601 59.2522 52.1601C61.3773 52.1601 62.163 52.6244 62.4845 54.053C62.5202 54.1958 62.6273 54.2851 62.7702 54.2851H64.1095C64.1988 54.2851 64.2702 54.2494 64.3238 54.1958C64.3774 54.1244 64.4131 54.053 64.3952 53.9637C64.181 51.4993 62.5559 50.3564 59.2522 50.3564C56.3057 50.3564 54.5556 51.6065 54.5556 53.678C54.5556 55.9459 56.3057 56.5531 59.1272 56.8388C62.5023 57.1781 62.7702 57.6603 62.7702 58.321C62.7702 59.4818 61.8416 59.9639 59.6629 59.9639C56.9307 59.9639 56.3235 59.2853 56.1271 57.9281C56.1092 57.7853 55.9842 57.6781 55.8235 57.6781H54.4842C54.3234 57.6781 54.1806 57.8031 54.1806 57.9817C54.1806 59.7139 55.127 61.7854 59.6451 61.7854C62.9488 61.7854 64.8238 60.4997 64.8238 58.2496ZM74.5563 49.3028C74.5563 50.3921 73.6634 51.285 72.5741 51.285C71.4848 51.285 70.5919 50.3921 70.5919 49.3028C70.5919 48.1778 71.5205 47.3206 72.5741 47.3206C73.6456 47.3027 74.5563 48.1778 74.5563 49.3028ZM74.2349 49.3028C74.2349 48.3742 73.4849 47.642 72.5563 47.642C71.6455 47.642 70.8955 48.3742 70.8955 49.3028C70.8955 50.2314 71.6455 50.9814 72.5563 50.9814C73.4849 50.9636 74.2349 50.2136 74.2349 49.3028ZM73.4313 50.41H72.967C72.9491 50.3028 72.8777 49.7314 72.8777 49.7135C72.842 49.5885 72.8063 49.5171 72.6455 49.5171H72.2527V50.41H71.8241V48.1778H72.592C72.8598 48.1778 73.3777 48.1778 73.3777 48.7671C73.3777 49.1778 73.1099 49.2671 72.9491 49.3207C73.2527 49.3385 73.2706 49.535 73.3242 49.8207C73.342 49.9993 73.3777 50.3028 73.4313 50.41ZM72.9313 48.8385C72.9313 48.5349 72.717 48.5349 72.6098 48.5349H72.2527V49.1599H72.592C72.8777 49.1599 72.9313 48.9635 72.9313 48.8385ZM24.5188 23.3911C24.5188 22.909 24.2688 22.4804 23.858 22.2482L12.9112 15.9444C12.7326 15.8373 12.5183 15.7837 12.304 15.7658H12.1969C11.9826 15.7658 11.7862 15.8373 11.5897 15.9444L0.660739 22.2482C0.250009 22.4804 0 22.9268 0 23.3911L0.0178578 40.356C0.0178578 40.5882 0.142862 40.8025 0.339298 40.9275C0.535734 41.0525 0.785743 41.0525 1.00004 40.9275L7.50028 37.1952C7.91101 36.9452 8.16102 36.5166 8.16102 36.0523V28.1234C8.16102 27.6591 8.41103 27.2127 8.82176 26.9806L11.5897 25.3912C11.804 25.2662 12.0183 25.2126 12.2505 25.2126C12.4826 25.2126 12.7148 25.2662 12.9112 25.3912L15.6792 26.9806C16.0899 27.2127 16.3399 27.6591 16.3399 28.1234V36.0523C16.3399 36.5166 16.5899 36.9631 17.0006 37.1952L23.5009 40.9275C23.6973 41.0525 23.9652 41.0525 24.1616 40.9275C24.358 40.8204 24.4831 40.5882 24.4831 40.356L24.5188 23.3911ZM84.3781 4.87259V36.3738C84.3781 36.8381 84.1281 37.2845 83.7174 37.5167L72.7706 43.8383C72.3598 44.0705 71.8598 44.0705 71.4491 43.8383L60.5022 37.5167C60.0915 37.2845 59.8415 36.8381 59.8415 36.3738V23.7304C59.8415 23.2661 60.0915 22.8197 60.5022 22.5875L71.4491 16.2659C71.8598 16.0337 72.3598 16.0337 72.7706 16.2659L75.5028 17.8374C75.8064 18.0159 76.1993 17.7838 76.1993 17.4445V0.658145C76.1993 0.158127 76.735 -0.163314 77.1814 0.0866955L83.6995 3.72969C84.1103 3.94398 84.3781 4.39043 84.3781 4.87259ZM76.1635 27.8913C76.1635 27.7663 76.0921 27.6591 76.0028 27.6056L72.2527 25.4269C72.1455 25.3733 72.0205 25.3733 71.9134 25.4269L68.1632 27.6056C68.0561 27.6591 68.0025 27.7663 68.0025 27.8913V32.2307C68.0025 32.3557 68.074 32.4629 68.1632 32.5165L71.9134 34.6773C72.0205 34.7308 72.1455 34.7308 72.2348 34.6773L75.985 32.5165C76.0921 32.4629 76.1457 32.3557 76.1457 32.2307V27.8913H76.1635ZM113.629 27.7663C114.04 27.5341 114.29 27.0877 114.29 26.6234V23.5697C114.29 23.1054 114.04 22.659 113.629 22.4268L102.754 16.1051C102.343 15.873 101.843 15.873 101.432 16.1051L90.4855 22.4268C90.0748 22.659 89.8248 23.1054 89.8248 23.5697V36.213C89.8248 36.6952 90.0748 37.1238 90.4855 37.3559L101.361 43.5526C101.754 43.7847 102.254 43.7847 102.665 43.5526L109.236 39.8917C109.683 39.6417 109.683 38.9989 109.236 38.7488L98.2179 32.4272C98.0036 32.3022 97.8786 32.0879 97.8786 31.8557V27.8913C97.8786 27.6591 98.0036 27.4449 98.2179 27.3198L101.647 25.3376C101.843 25.2126 102.111 25.2126 102.307 25.3376L105.736 27.3198C105.932 27.4449 106.075 27.6591 106.075 27.8913V30.9986C106.075 31.4986 106.629 31.82 107.075 31.57L113.629 27.7663ZM99.8251 28.3913C99.7537 28.4449 99.7001 28.5163 99.7001 28.6056V31.0343C99.7001 31.1236 99.7537 31.2128 99.8251 31.2486L101.932 32.4629C102.004 32.5165 102.111 32.5165 102.182 32.4629L104.29 31.2486C104.361 31.195 104.415 31.1236 104.415 31.0343V28.6056C104.415 28.5163 104.361 28.427 104.29 28.3913L102.182 27.177C102.111 27.1234 102.004 27.1234 101.932 27.177L99.8251 28.3913ZM54.4306 36.1595V23.5876C54.4306 23.1233 54.1449 22.6768 53.7341 22.4447L42.823 16.1587C42.448 15.9444 41.9301 15.9087 41.5015 16.1587L30.5904 22.4447C30.1797 22.6768 29.894 23.1054 29.894 23.5876V36.1595C29.894 36.6595 30.2333 37.0881 30.6083 37.3024L41.5373 43.5883C41.9658 43.8383 42.4659 43.8205 42.8587 43.5883L53.752 37.3024C54.0734 37.1238 54.3056 36.8202 54.3949 36.463C54.4127 36.3738 54.4306 36.2666 54.4306 36.1595ZM41.1622 13.8551L41.0194 13.9444H41.2158L41.1622 13.8551ZM54.7699 37.1059L54.6985 36.9809V37.1416L54.7699 37.1059Z" fill="#A0A0A0"/>
</svg>
