<svg width="70" height="70" viewBox="0 0 70 70" fill="none" xmlns="http://www.w3.org/2000/svg">
<g clip-path="url(#clip0_302_1194)">
<path d="M48.8542 54.9609C46.539 54.7483 43.5677 54.3001 40.6961 51.164V57.6157C45.9717 61.0449 55.0449 60.4155 58.208 56.2939C60.0879 53.8444 60.8626 50.5631 59.4709 46.8468C56.1914 40.2409 48.3984 39.8307 46.1322 35.6593C43.6285 28.9029 53.9541 27.6821 58.9151 32.2339V26.1691C56.8014 24.804 53.4404 24.6573 51.0826 24.7846C44.8603 25.1206 40.679 28.736 40.7414 34.1216C40.4733 41.6393 49.0579 43.575 53.3686 47.0541C56.2961 49.5383 56.0866 55.5627 48.8542 54.9609ZM24.287 59.2695V30.0815H14.8837V25.255H38.8991V30.0815H29.4763V59.2695L24.287 59.2695ZM65.625 4.375V65.625H4.375V4.375H65.625ZM70 0H0V70H70V0Z" fill="#A0A0A0"/>
</g>
<defs>
<clipPath id="clip0_302_1194">
<rect width="70" height="70" fill="white"/>
</clipPath>
</defs>
</svg>
