<svg width="70" height="70" viewBox="0 0 70 70" fill="none" xmlns="http://www.w3.org/2000/svg">
<g clip-path="url(#clip0_302_1196)">
<path d="M58.333 37.3335V36.5557C58.333 33.1193 55.547 30.3335 52.1109 30.3335H46.6663C42.8003 30.3335 39.6663 33.4675 39.6663 37.3335C39.6663 41.1995 42.8003 44.3335 46.6663 44.3335H51.333C55.1989 44.3335 58.333 47.4676 58.333 51.3335C58.333 55.1994 55.1989 58.3335 51.333 58.3335H46.6663C42.8003 58.3335 39.6663 55.1994 39.6663 51.3335M30.333 28.0002V51.3335C30.333 55.1994 27.199 58.3335 23.333 58.3335C19.467 58.3335 16.333 55.1994 16.333 51.3335M2.33301 2.3335H67.6663V67.6668H2.33301V2.3335Z" stroke="#A0A0A0" stroke-width="4"/>
</g>
<defs>
<clipPath id="clip0_302_1196">
<rect width="70" height="70" fill="white"/>
</clipPath>
</defs>
</svg>
