<svg width="63" height="70" viewBox="0 0 63 70" fill="none" xmlns="http://www.w3.org/2000/svg">
<path d="M28.1642 29.5327C27.0982 30.1508 26.2387 31.0726 25.6943 32.1814C25.1499 33.2902 24.945 34.5362 25.1057 35.7619C25.2664 36.9876 25.7853 38.138 26.5969 39.0675C27.4085 39.9969 28.4763 40.6638 29.6653 40.9838C30.8542 41.3037 32.1109 41.2624 33.2765 40.8649C34.442 40.4675 35.464 39.7318 36.2133 38.751C36.9626 37.7702 37.4055 36.5882 37.4859 35.3545C37.5664 34.1209 37.2808 32.891 36.6653 31.8203C35.8399 30.3848 34.4806 29.3373 32.8864 28.9083C31.2922 28.4793 29.5936 28.7039 28.1642 29.5327ZM56.0579 36.3145C55.6494 35.8455 55.2182 35.3753 54.7646 34.9038C55.0815 34.5692 55.3881 34.235 55.6845 33.901C61.2803 27.5861 63.642 21.2531 61.4537 17.4457C59.3553 13.7952 53.1133 12.7073 45.299 14.2334C44.5293 14.3847 43.7638 14.5553 43.0026 14.7453C42.8569 14.2407 42.7019 13.7391 42.5376 13.2403C39.8866 5.21645 35.6043 -0.00276389 31.2274 1.09807e-06C27.0305 0.00192609 22.9741 4.8898 20.3864 12.4512C20.1318 13.1972 19.8963 13.9493 19.6798 14.7077C19.1709 14.5823 18.6598 14.4664 18.1466 14.3601C9.90187 12.6599 3.26123 13.7797 1.07714 17.5892C-1.01714 21.2424 1.17308 27.2136 6.4035 33.2416C6.92223 33.838 7.45564 34.4211 8.00373 34.9907C7.3576 35.6592 6.74576 36.3273 6.1755 36.9917C1.07185 42.9347 -0.993133 48.8082 1.09777 52.4456C3.25719 56.2028 9.80437 57.4309 17.7733 55.8558C18.4191 55.7273 19.0614 55.5826 19.7001 55.4218C19.934 56.2422 20.1907 57.0553 20.47 57.8613C23.0463 65.271 27.0799 70.0015 31.262 70C35.5811 69.9974 39.9108 64.9149 42.534 57.1944C42.7412 56.5843 42.9373 55.9507 43.1232 55.2983C43.9482 55.5044 44.7785 55.6874 45.6142 55.8471C53.2922 57.3061 59.3874 56.1586 61.4745 52.5186C63.6297 48.7587 61.4076 42.4525 56.0579 36.3145ZM3.65716 19.0814C5.00176 16.7364 10.4287 15.8215 17.5473 17.2894C18.0023 17.3834 18.465 17.4884 18.9356 17.6044C18.2406 20.6923 17.7502 23.8231 17.4676 26.9762C14.8991 28.7911 12.4501 30.7711 10.1362 32.9038C9.62644 32.3742 9.13024 31.8319 8.64766 31.2766C4.16613 26.1117 2.39505 21.2828 3.65716 19.0814ZM17.2009 39.1296C15.4218 37.7765 13.7683 36.3904 12.2676 34.9962C13.7673 33.6106 15.4218 32.2291 17.1973 30.8796C17.1335 32.2543 17.1019 33.63 17.1024 35.0068C17.1034 36.3816 17.1362 37.7559 17.2009 39.1296ZM17.1988 52.9217C14.1785 53.5963 11.0604 53.7068 8.00025 53.2477C7.16137 53.1821 6.34479 52.9444 5.60099 52.5493C4.85718 52.1542 4.20195 51.6101 3.67577 50.9506C2.4071 48.7433 4.06521 44.0277 8.42997 38.9449C8.97872 38.3079 9.54545 37.6875 10.1302 37.0838C12.4444 39.2276 14.8973 41.2154 17.4728 43.034C17.7592 46.2274 18.2554 49.3983 18.958 52.526C18.3749 52.6724 17.7885 52.8043 17.1988 52.9217ZM41.9439 24.7841C40.7751 24.0444 39.592 23.3285 38.3943 22.6363C37.2158 21.955 36.0231 21.2992 34.8163 20.6691C36.8827 19.7964 38.9139 19.0511 40.8749 18.4437C41.3372 20.5378 41.6939 22.6539 41.9439 24.7841ZM23.202 13.4232C25.4191 6.94422 28.6995 2.99137 31.229 2.99029C33.923 2.98899 37.4231 7.25419 39.7119 14.182C39.8605 14.6336 40.0011 15.0877 40.1335 15.5444C37.1266 16.4811 34.1848 17.6167 31.3272 18.9436C28.4815 17.6011 25.5489 16.4529 22.5493 15.5068C22.7498 14.807 22.9674 14.1125 23.202 13.4232ZM21.8069 18.4064C23.8523 19.0532 25.864 19.8032 27.8342 20.6534C25.393 21.9188 23.0148 23.2971 20.6998 24.7883C20.9795 22.5553 21.3517 20.4159 21.8069 18.4064ZM20.7049 45.2187C21.8594 45.961 23.0307 46.6759 24.2189 47.3633C25.431 48.0642 26.6592 48.7357 27.9035 49.3777C25.9182 50.2574 23.8893 51.0342 21.8247 51.705C21.3642 49.6677 20.988 47.4906 20.7049 45.2187ZM39.7162 56.228C38.7891 59.1929 37.3267 61.9612 35.4018 64.3943C34.9262 65.0913 34.3131 65.6832 33.6008 66.1329C32.8885 66.5825 32.092 66.8808 31.2604 67.0091C28.7229 67.0105 25.484 63.2116 23.2808 56.875C23.0213 56.1258 22.7826 55.3698 22.5647 54.607C25.5786 53.6304 28.5231 52.4497 31.378 51.0731C34.2591 52.4086 37.2244 53.5527 40.2547 54.4978C40.0893 55.0788 39.9097 55.6555 39.7162 56.228ZM40.9785 51.5932C38.995 50.9772 36.9342 50.2194 34.838 49.334C36.0197 48.7093 37.21 48.0497 38.4088 47.355C39.639 46.6415 40.8379 45.9101 42.0053 45.1609C41.7728 47.3212 41.4301 49.4681 40.9785 51.5932ZM42.5336 34.9939C42.5362 37.1195 42.4702 39.2433 42.3354 41.3654C40.6186 42.5324 38.8061 43.6719 36.9203 44.7654C35.0422 45.8545 33.1814 46.8553 31.3561 47.7611C29.4353 46.8365 27.5516 45.8402 25.7048 44.7721C23.8685 43.7104 22.0743 42.5799 20.3221 41.3806C20.162 39.2591 20.0813 37.1338 20.0801 35.0046C20.0786 32.8769 20.158 30.7521 20.3173 28.6288C22.0336 27.4515 23.833 26.313 25.6933 25.2342C27.5622 24.1502 29.4463 23.1537 31.32 22.2505C33.2172 23.1765 35.0801 24.169 36.9088 25.2278C38.7439 26.2871 40.5431 27.4055 42.3065 28.5831C42.458 30.7168 42.5335 32.8537 42.5336 34.9939ZM45.8675 17.1691C52.5627 15.861 57.6109 16.7409 58.8755 18.9408C60.2227 21.2845 58.2919 26.4606 53.4609 31.913C53.194 32.2138 52.9169 32.5161 52.6299 32.8194C50.276 30.6823 47.7799 28.7085 45.1589 26.9119C44.8944 23.7933 44.4224 20.696 43.746 17.6407C44.4669 17.4626 45.1741 17.3054 45.8675 17.1691ZM45.4149 30.7655C47.1828 32.0619 48.8826 33.4496 50.5073 34.9229C48.8897 36.4204 47.1954 37.8321 45.4311 39.152C45.4851 37.7662 45.5117 36.3797 45.5108 34.9925C45.5102 33.5832 45.4783 32.1742 45.4149 30.7655ZM58.894 51.0261C57.6275 53.2351 52.7335 54.1563 46.1672 52.9085C45.4147 52.7658 44.6426 52.596 43.8508 52.399C44.5109 49.3044 44.962 46.1686 45.201 43.0129C47.8175 41.1849 50.3057 39.1784 52.648 37.0073C53.0579 37.435 53.4477 37.8607 53.8176 38.2844C55.9121 40.5718 57.5695 43.2267 58.7068 46.1168C59.0706 46.8788 59.2748 47.7076 59.307 48.552C59.3392 49.3964 59.1986 50.2384 58.894 51.0261Z" fill="#A0A0A0"/>
</svg>
