<svg width="74" height="70" viewBox="0 0 74 70" fill="none" xmlns="http://www.w3.org/2000/svg">
<path d="M56.6459 18.9744L54.5341 18.3113C54.5341 17.8377 54.7547 17.3326 54.8808 16.859C56.4567 9.09202 55.4166 2.84058 51.7289 0.788342C48.0412 -1.2639 42.746 0.788341 37.0726 5.80844C36.5368 6.28203 35.9695 6.7872 35.4651 7.29237L34.5196 6.34518C28.594 0.946206 22.6685 -1.29547 19.1068 0.788342C15.5452 2.87216 14.6627 8.65 15.9549 16.0065C16.081 16.7432 16.2386 17.4694 16.4277 18.185C15.6082 18.406 14.7887 18.6586 14.0008 18.9428C7.06661 21.3423 2.08662 25.2574 2.08662 29.1093C2.08662 32.9612 7.3818 37.2551 14.6942 39.7178L16.4592 40.2861C16.2701 41.0754 16.1125 41.8332 15.9549 42.6225C14.5996 49.8527 15.6398 55.599 19.1068 57.5565C22.5739 59.514 28.5625 57.5565 34.2674 52.4732L35.6227 51.2103C36.1901 51.7786 36.7889 52.2838 37.3878 52.8205C42.9666 57.6196 48.4825 59.5456 51.8865 57.5881C55.2905 55.6305 56.5198 49.3791 55.0384 41.8016C55.0384 41.2017 54.7862 40.6334 54.6602 40.0335L55.8894 39.6546C63.3909 37.1604 68.8122 33.1506 68.8122 29.0145C68.8122 24.8785 63.7376 21.3108 56.6459 18.9744ZM39.0583 7.82911C43.8807 3.59833 48.514 1.92497 50.4682 3.12474C52.4223 4.32451 53.62 9.43933 52.1386 16.1959C52.1386 16.638 51.9495 17.08 51.8235 17.522C48.9387 16.8544 46.0108 16.3902 43.0612 16.1328C41.3814 13.6966 39.5275 11.3857 37.5139 9.21832C38.0182 8.71315 38.5225 8.27113 39.0583 7.82911ZM23.9923 35.8659C24.6542 37.0025 25.3476 38.1391 26.041 39.2442C24.0238 39.0232 22.0066 38.6759 20.0209 38.2654C20.5882 36.371 21.3132 34.4451 22.1326 32.456C22.7315 33.5926 23.3304 34.7293 23.9923 35.8659ZM20.0524 20.0794C21.912 19.669 23.9292 19.3217 25.978 19.0691C25.2845 20.1426 24.6226 21.195 23.9923 22.2264C23.3304 23.3314 22.7315 24.468 22.1326 25.6047C21.3389 23.7487 20.6445 21.8516 20.0524 19.9215V20.0794ZM23.614 29.1724C24.465 27.3728 25.4106 25.6047 26.3877 23.8682C27.3648 22.1316 28.4679 20.4583 29.5396 18.8165C31.4938 18.8165 33.4795 18.5955 35.5282 18.5955C37.5769 18.5955 39.5626 18.5955 41.4853 18.8165C42.5884 20.4583 43.6601 21.9738 44.6371 23.8366C45.6142 25.6994 46.5913 27.3412 47.4739 29.1093C46.5913 30.9089 45.6773 32.677 44.6687 34.4135C43.6601 36.15 42.5254 37.9181 41.5483 39.4968C39.5941 39.6546 37.5769 39.7178 35.5597 39.7178C33.5425 39.7178 31.5253 39.7178 29.6026 39.5283C28.4679 37.8865 27.4278 36.1816 26.4507 34.4451C25.4736 32.7086 24.4966 30.9721 23.614 29.1724ZM47.1271 35.8343C47.789 34.6977 48.3879 33.5295 49.0183 32.3613C49.8378 34.2557 50.5627 36.15 51.2246 38.1391C49.2074 38.5812 47.1587 38.9285 45.1099 39.181C45.8033 38.076 46.4652 36.9709 47.1271 35.8343ZM48.9868 25.8573C48.3774 24.7206 47.747 23.584 47.0956 22.4474C46.4652 21.3423 45.8033 20.2373 45.1099 19.2901C47.1234 19.5292 49.1225 19.877 51.0985 20.332C50.4894 22.2087 49.7846 24.0529 48.9868 25.8573ZM35.5597 11.2074C36.9218 12.6662 38.1954 14.2055 39.3735 15.8171C36.831 15.8171 34.2674 15.8171 31.6829 15.8171C32.8969 14.2162 34.1909 12.6777 35.5597 11.2074ZM20.4621 3.18789C22.6369 1.89339 27.4909 3.72462 32.5969 8.27113L33.6055 9.18674C31.5907 11.3726 29.7268 13.6933 28.0267 16.1328C25.0904 16.3975 22.1742 16.851 19.2959 17.4904C19.2959 16.8274 18.9808 16.1328 18.8547 15.4698C17.6254 9.15517 18.4134 4.38766 20.4621 3.18789ZM17.3103 37.5708L15.7028 37.0656C12.7594 36.1858 9.98782 34.8083 7.50787 32.9927C6.85644 32.5496 6.30424 31.9754 5.8864 31.3068C5.46857 30.6383 5.19425 29.8899 5.08091 29.1093C5.08091 26.7097 9.17837 23.6787 15.1039 21.5949L17.3103 20.8687C18.1829 23.7012 19.2357 26.4747 20.4621 29.1724C19.236 31.9026 18.1833 34.7076 17.3103 37.5708ZM32.5024 50.3579C30.3516 52.3171 27.8632 53.8683 25.1585 54.9359C24.4316 55.2922 23.6387 55.493 22.8302 55.5256C22.0217 55.5583 21.2152 55.4219 20.4621 55.1254C18.4134 53.9256 17.5309 49.3159 18.6971 43.1277C18.6971 42.4015 19.0123 41.6753 19.2014 40.9491C22.1103 41.5751 25.0592 41.9971 28.0267 42.212C29.7473 44.6547 31.6212 46.9852 33.6371 49.1897L32.4078 50.3579H32.5024ZM35.6543 47.2006C34.2627 45.6889 32.9477 44.1083 31.7144 42.4646H35.5597C35.5597 42.4646 38.2073 42.4646 39.4996 42.4646C38.3018 44.2327 37.0096 45.6535 35.6543 47.169V47.2006ZM52.643 51.1156C52.5891 51.9067 52.3706 52.6778 52.0015 53.3792C51.6324 54.0807 51.1208 54.697 50.4997 55.1885C48.4509 56.3883 44.0383 54.8412 39.2789 50.7367L37.6084 49.2528C39.6027 47.0518 41.4356 44.7093 43.0927 42.2436C46.0858 42.002 49.0568 41.5376 51.9811 40.8544C51.9811 41.3911 52.2332 41.9279 52.3278 42.433C52.9684 45.2721 53.0753 48.2058 52.643 51.084V51.1156ZM55.1329 37.0656L53.9983 37.413C53.1004 34.5673 51.9943 31.7919 50.6888 29.1093C51.9236 26.4475 52.9766 23.7049 53.8407 20.9003L55.7948 21.5002C61.878 23.584 66.133 26.7097 66.133 29.0777C66.133 31.4457 61.4367 34.9187 55.1329 37.0656ZM35.6543 35.1081C36.8283 35.0895 37.9706 34.7237 38.9377 34.0567C39.9048 33.3898 40.6536 32.4514 41.09 31.3596C41.5264 30.2677 41.631 29.0709 41.3906 27.9197C41.1501 26.7685 40.5754 25.7141 39.7387 24.889C38.9019 24.0639 37.8404 23.5049 36.6875 23.2822C35.5346 23.0596 34.3417 23.1831 33.2587 23.6374C32.1757 24.0917 31.2509 24.8565 30.6004 25.8356C29.9499 26.8148 29.6028 27.9647 29.6026 29.1408C29.6026 29.9245 29.7567 30.7004 30.0561 31.4244C30.3555 32.1484 30.7943 32.8062 31.3474 33.3603C31.9006 33.9145 32.5573 34.354 33.28 34.6539C34.0028 34.9538 34.7774 35.1081 35.5597 35.1081H35.6543ZM5.58522 65.797C6.17118 65.5982 6.6762 65.2129 7.0233 64.6999C7.37041 64.1869 7.54057 63.5743 7.50787 62.9555C7.53573 62.5336 7.4733 62.1107 7.32475 61.715C7.17621 61.3192 6.94498 60.9599 6.64656 60.661C6.34813 60.362 5.98938 60.1304 5.59435 59.9816C5.19931 59.8328 4.7771 59.7703 4.35598 59.7982H0.290039V69.7752H1.83447V66.0496H4.00927L6.02648 69.8699H7.85458L5.58522 65.797ZM4.04079 64.7235H1.83447V61.2505H4.00927C4.25326 61.2185 4.50127 61.2398 4.73623 61.313C4.97119 61.3863 5.18751 61.5097 5.37026 61.6748C5.55302 61.8398 5.69787 62.0426 5.79483 62.2692C5.8918 62.4957 5.93857 62.7406 5.93192 62.987C5.94334 63.2319 5.9009 63.4763 5.80761 63.703C5.71431 63.9296 5.57245 64.1329 5.39204 64.2986C5.21163 64.4643 4.99709 64.5882 4.7636 64.6616C4.5301 64.735 4.28334 64.7562 4.04079 64.7235ZM14.7257 66.4916V65.9865C14.7257 63.6185 13.4649 62.1661 11.3532 62.1661C10.8541 62.1621 10.36 62.2651 9.90397 62.4682C9.44794 62.6713 9.04056 62.9698 8.70918 63.3436C8.37781 63.7174 8.13011 64.1579 7.9827 64.6355C7.8353 65.1131 7.79162 65.6168 7.85458 66.1128C7.79066 66.6057 7.83412 67.1067 7.98196 67.5812C8.1298 68.0558 8.37851 68.4926 8.71099 68.8616C9.04346 69.2307 9.45181 69.5232 9.90792 69.7191C10.364 69.9149 10.8571 70.0095 11.3532 69.9962C12.0444 70.0301 12.7276 69.8351 13.2973 69.4414C13.8669 69.0477 14.2913 68.4771 14.5051 67.8177H13.2128C13.0359 68.1299 12.7713 68.3832 12.4519 68.546C12.1324 68.7087 11.7723 68.7739 11.4162 68.7333C11.139 68.7386 10.8638 68.6857 10.6082 68.5779C10.3526 68.4702 10.1224 68.3101 9.93242 68.1078C9.7424 67.9056 9.59676 67.6657 9.50489 67.4037C9.41302 67.1416 9.37695 66.8632 9.399 66.5863L14.7257 66.4916ZM11.3532 63.3343C11.6054 63.3248 11.8567 63.3686 12.0908 63.4629C12.325 63.5572 12.5367 63.6998 12.7121 63.8815C12.8875 64.0632 13.0228 64.2799 13.1091 64.5175C13.1953 64.755 13.2307 65.0081 13.2128 65.2603H9.399C9.43133 64.7662 9.6524 64.3035 10.0163 63.9684C10.3802 63.6333 10.859 63.4514 11.3532 63.4606V63.3343ZM18.3819 62.0398C16.6799 62.0398 15.4506 62.8923 15.23 64.1868H16.6799C16.6799 63.6501 17.4048 63.3343 18.2558 63.3343C19.1068 63.3343 19.7687 63.8079 19.7687 64.5973V65.2287H17.7515C15.9549 65.2287 14.9463 66.1128 14.9463 67.4704C14.9492 67.7899 15.0184 68.1054 15.1495 68.3967C15.2806 68.688 15.4708 68.9488 15.7079 69.1626C15.945 69.3764 16.2239 69.5384 16.5269 69.6384C16.8299 69.7385 17.1503 69.7743 17.4678 69.7436C17.914 69.763 18.3571 69.6619 18.7508 69.4508C19.1446 69.2397 19.4744 68.9265 19.7057 68.5439V69.6173H21.124V64.7235C21.3132 63.1765 20.2415 62.1661 18.3819 62.1661V62.0398ZM19.8318 66.9652C19.8159 67.2005 19.7533 67.4302 19.6475 67.6409C19.5417 67.8516 19.3949 68.0389 19.2158 68.1919C19.0366 68.3449 18.8287 68.4604 18.6043 68.5317C18.3799 68.603 18.1435 68.6286 17.9091 68.607C17.0896 68.607 16.4908 68.1966 16.4908 67.5335C16.4908 66.8705 16.9635 66.5232 18.0037 66.4601H19.8318V66.9652ZM27.3017 64.6604C27.1992 64.2714 26.9626 63.9312 26.6338 63.7001C26.305 63.469 25.9053 63.3618 25.5052 63.3975C24.2759 63.3975 23.5195 64.3447 23.5195 65.9549C23.5195 67.5651 24.2759 68.5439 25.5052 68.5439C25.9032 68.5945 26.3059 68.4971 26.637 68.2701C26.9681 68.0432 27.2046 67.7025 27.3017 67.3125H28.7516C28.6494 68.0604 28.2666 68.7411 27.6811 69.2162C27.0955 69.6913 26.3512 69.9251 25.5997 69.8699C25.098 69.8886 24.5983 69.7969 24.1358 69.6013C23.6732 69.4056 23.2591 69.1108 22.9226 68.7376C22.5861 68.3644 22.3353 67.9218 22.1879 67.441C22.0406 66.9603 22.0002 66.453 22.0696 65.9549C22.021 65.4746 22.0737 64.9895 22.2245 64.531C22.3752 64.0725 22.6206 63.6509 22.9446 63.2936C23.2686 62.9363 23.664 62.6513 24.1051 62.457C24.5463 62.2628 25.0233 62.1637 25.5052 62.1661C26.2561 62.1552 26.9862 62.4132 27.564 62.8936C28.1419 63.3741 28.5295 64.0454 28.6571 64.7867L27.3017 64.6604ZM31.4938 60.3349V62.2293H33.0697V63.4922H31.4938V67.3757C31.4938 68.1334 31.809 68.4807 32.5654 68.4807H33.0697V69.7121C32.8081 69.7451 32.5434 69.7451 32.2817 69.7121C30.6428 69.7121 29.9809 69.1438 29.9809 67.6914V63.6185H28.8147V62.3556H29.9178V60.4612L31.4938 60.3349ZM36.7889 69.8068V60.0192H38.1758L43.2818 67.0915V60.0192H44.7632V69.9962H43.3764L38.2703 62.8923V69.9962L36.7889 69.8068ZM49.1128 62.103C47.4108 62.103 46.1816 62.9555 45.9609 64.2499H47.4108C47.4108 63.7132 48.1357 63.3975 48.9868 63.3975C49.8378 63.3975 50.4997 63.8711 50.4997 64.6604V65.2919H48.4825C46.6859 65.2919 45.6773 66.1759 45.6773 67.5335C45.6802 67.8531 45.7494 68.1685 45.8805 68.4598C46.0116 68.7512 46.2017 69.012 46.4389 69.2258C46.676 69.4395 46.9549 69.6016 47.2578 69.7016C47.5608 69.8016 47.8813 69.8374 48.1988 69.8068C48.6449 69.8262 49.0881 69.7251 49.4818 69.514C49.8755 69.3029 50.2053 68.9896 50.4366 68.607V69.6805H51.9811V64.7235C51.9811 63.1765 51.004 62.1661 49.1128 62.1661V62.103ZM50.5627 67.0284C50.5469 67.2636 50.4842 67.4934 50.3784 67.704C50.2726 67.9147 50.1259 68.1021 49.9467 68.255C49.7675 68.408 49.5596 68.5236 49.3352 68.5949C49.1108 68.6661 48.8745 68.6917 48.6401 68.6702C47.8206 68.6702 47.2217 68.2597 47.2217 67.5967C47.2217 66.9336 47.6945 66.5863 48.7346 66.5232H50.5627V67.0284ZM55.1329 60.4612V62.3556H56.7719V63.6185H55.1329V67.502C55.1329 68.2597 55.4797 68.607 56.2046 68.607H56.7719V69.8384C56.4999 69.8741 56.2244 69.8741 55.9524 69.8384C54.3135 69.8384 53.6516 69.27 53.6516 67.8177V63.6185H52.4538V62.3556H53.6516V60.4612H55.1329ZM57.2762 60.1139C57.2571 59.9161 57.2986 59.7171 57.3951 59.5434C57.4916 59.3698 57.6386 59.2297 57.8166 59.1417C57.9945 59.0538 58.195 59.0223 58.3913 59.0512C58.5876 59.0802 58.7704 59.1684 58.9155 59.304C59.0605 59.4396 59.1609 59.6163 59.2033 59.8104C59.2457 60.0046 59.2281 60.2071 59.1528 60.391C59.0775 60.5749 58.9481 60.7315 58.7818 60.8399C58.6155 60.9483 58.4201 61.0034 58.2218 60.9979C58.0911 61.0073 57.9599 60.9884 57.8371 60.9426C57.7143 60.8967 57.6028 60.8249 57.5101 60.7321C57.4174 60.6393 57.3458 60.5276 57.3 60.4046C57.2542 60.2816 57.2353 60.1501 57.2447 60.0192L57.2762 60.1139ZM57.4969 62.324H58.9783V69.8699H57.4969V62.324ZM63.8007 69.8699H62.2247L59.5141 62.324H61.09L62.9496 68.2597L64.8093 62.324H66.3852L63.8007 69.8699ZM73.2563 66.4916V65.9865C73.3249 65.5063 73.2885 65.0169 73.1496 64.5522C73.0107 64.0875 72.7726 63.6586 72.4518 63.2952C72.131 62.9318 71.7352 62.6426 71.2918 62.4477C70.8484 62.2527 70.368 62.1567 69.8838 62.1661C69.3874 62.1666 68.8968 62.273 68.4446 62.478C67.9924 62.6831 67.5889 62.9822 67.2609 63.3555C66.933 63.7288 66.6881 64.1677 66.5426 64.6431C66.397 65.1185 66.3541 65.6195 66.4167 66.1128C66.3477 66.604 66.3866 67.1043 66.5305 67.579C66.6745 68.0536 66.9201 68.491 67.2502 68.8608C67.5803 69.2305 67.987 69.5237 68.4418 69.7198C68.8967 69.9159 69.3888 70.0102 69.8838 69.9962C70.5751 70.0301 71.2582 69.8351 71.8279 69.4414C72.3975 69.0477 72.822 68.4771 73.0357 67.8177H71.5858C71.4209 68.1332 71.163 68.3903 70.8473 68.5541C70.5316 68.7179 70.1732 68.7804 69.8208 68.7333C69.5435 68.7386 69.2683 68.6857 69.0128 68.5779C68.7572 68.4702 68.527 68.3101 68.337 68.1078C68.1469 67.9056 68.0013 67.6657 67.9094 67.4037C67.8176 67.1416 67.7815 66.8632 67.8036 66.5863L73.2563 66.4916ZM69.8838 63.3343C70.1347 63.3297 70.3838 63.3768 70.6157 63.4727C70.8476 63.5687 71.0574 63.7115 71.2318 63.8921C71.4062 64.0728 71.5417 64.2875 71.6297 64.5229C71.7177 64.7583 71.7564 65.0093 71.7434 65.2603H67.7405C67.7726 64.7717 67.9892 64.3137 68.3464 63.9794C68.7035 63.6451 69.1744 63.4596 69.6632 63.4606L69.8838 63.3343Z" fill="#A0A0A0"/>
</svg>
